<mxfile host="app.diagrams.net" modified="2023-08-28T13:30:19.388Z" agent="Mozilla/5.0 (Windows NT 10.0; Win64; x64; rv:109.0) Gecko/20100101 Firefox/116.0" etag="oSQH9BC7E_0fSyCTAOM2" version="21.6.9" type="github">
  <diagram name="PÃ¡gina-1" id="PlWNK5l9EmhUsKbmfVEO">
    <mxGraphModel dx="880" dy="434" grid="1" gridSize="10" guides="1" tooltips="1" connect="1" arrows="1" fold="1" page="1" pageScale="1" pageWidth="827" pageHeight="1169" math="0" shadow="0">
      <root>
        <mxCell id="0" />
        <mxCell id="1" parent="0" />
        <mxCell id="hh8O3KnZnLqicaPpTEog-1" value="Usuario" style="html=1;dashed=0;whiteSpace=wrap;" vertex="1" parent="1">
          <mxGeometry x="130" y="50" width="100" height="50" as="geometry" />
        </mxCell>
        <mxCell id="hh8O3KnZnLqicaPpTEog-2" value="&lt;div&gt;Destinos&lt;/div&gt;" style="html=1;dashed=0;whiteSpace=wrap;" vertex="1" parent="1">
          <mxGeometry x="330" y="250" width="100" height="50" as="geometry" />
        </mxCell>
        <mxCell id="hh8O3KnZnLqicaPpTEog-3" value="&lt;div&gt;Reservas&lt;/div&gt;" style="html=1;dashed=0;whiteSpace=wrap;" vertex="1" parent="1">
          <mxGeometry x="540" y="50" width="100" height="50" as="geometry" />
        </mxCell>
        <mxCell id="hh8O3KnZnLqicaPpTEog-5" value="&lt;div&gt;Id&lt;/div&gt;&lt;div&gt;&lt;br&gt;&lt;/div&gt;" style="text;strokeColor=#666666;fillColor=#f5f5f5;align=left;verticalAlign=top;spacingLeft=4;spacingRight=4;overflow=hidden;rotatable=0;points=[[0,0.5],[1,0.5]];portConstraint=eastwest;whiteSpace=wrap;html=1;fillStyle=auto;fontColor=#333333;" vertex="1" parent="1">
          <mxGeometry x="130" y="100" width="100" height="26" as="geometry" />
        </mxCell>
        <mxCell id="hh8O3KnZnLqicaPpTEog-6" value="nome" style="text;strokeColor=#666666;fillColor=#f5f5f5;align=left;verticalAlign=top;spacingLeft=4;spacingRight=4;overflow=hidden;rotatable=0;points=[[0,0.5],[1,0.5]];portConstraint=eastwest;whiteSpace=wrap;html=1;fontColor=#333333;" vertex="1" parent="1">
          <mxGeometry x="130" y="126" width="100" height="26" as="geometry" />
        </mxCell>
        <mxCell id="hh8O3KnZnLqicaPpTEog-7" value="dataNascimento" style="text;strokeColor=#666666;fillColor=#f5f5f5;align=left;verticalAlign=top;spacingLeft=4;spacingRight=4;overflow=hidden;rotatable=0;points=[[0,0.5],[1,0.5]];portConstraint=eastwest;whiteSpace=wrap;html=1;fontColor=#333333;" vertex="1" parent="1">
          <mxGeometry x="130" y="152" width="100" height="26" as="geometry" />
        </mxCell>
        <mxCell id="hh8O3KnZnLqicaPpTEog-8" value="endereco" style="text;strokeColor=#666666;fillColor=#f5f5f5;align=left;verticalAlign=top;spacingLeft=4;spacingRight=4;overflow=hidden;rotatable=0;points=[[0,0.5],[1,0.5]];portConstraint=eastwest;whiteSpace=wrap;html=1;fontColor=#333333;" vertex="1" parent="1">
          <mxGeometry x="130" y="178" width="100" height="26" as="geometry" />
        </mxCell>
        <mxCell id="hh8O3KnZnLqicaPpTEog-10" value="id" style="text;strokeColor=#666666;fillColor=#f5f5f5;align=left;verticalAlign=top;spacingLeft=4;spacingRight=4;overflow=hidden;rotatable=0;points=[[0,0.5],[1,0.5]];portConstraint=eastwest;whiteSpace=wrap;html=1;fontColor=#333333;" vertex="1" parent="1">
          <mxGeometry x="330" y="300" width="100" height="26" as="geometry" />
        </mxCell>
        <mxCell id="hh8O3KnZnLqicaPpTEog-11" value="nome" style="text;strokeColor=#666666;fillColor=#f5f5f5;align=left;verticalAlign=top;spacingLeft=4;spacingRight=4;overflow=hidden;rotatable=0;points=[[0,0.5],[1,0.5]];portConstraint=eastwest;whiteSpace=wrap;html=1;fontColor=#333333;" vertex="1" parent="1">
          <mxGeometry x="330" y="326" width="100" height="26" as="geometry" />
        </mxCell>
        <mxCell id="hh8O3KnZnLqicaPpTEog-12" value="descricao" style="text;strokeColor=#666666;fillColor=#f5f5f5;align=left;verticalAlign=top;spacingLeft=4;spacingRight=4;overflow=hidden;rotatable=0;points=[[0,0.5],[1,0.5]];portConstraint=eastwest;whiteSpace=wrap;html=1;fontColor=#333333;" vertex="1" parent="1">
          <mxGeometry x="330" y="352" width="100" height="26" as="geometry" />
        </mxCell>
        <mxCell id="hh8O3KnZnLqicaPpTEog-13" value="id" style="text;strokeColor=#666666;fillColor=#f5f5f5;align=left;verticalAlign=top;spacingLeft=4;spacingRight=4;overflow=hidden;rotatable=0;points=[[0,0.5],[1,0.5]];portConstraint=eastwest;whiteSpace=wrap;html=1;fontColor=#333333;" vertex="1" parent="1">
          <mxGeometry x="540" y="100" width="100" height="26" as="geometry" />
        </mxCell>
        <mxCell id="hh8O3KnZnLqicaPpTEog-14" value="idUsuario" style="text;strokeColor=#666666;fillColor=#f5f5f5;align=left;verticalAlign=top;spacingLeft=4;spacingRight=4;overflow=hidden;rotatable=0;points=[[0,0.5],[1,0.5]];portConstraint=eastwest;whiteSpace=wrap;html=1;fontColor=#333333;" vertex="1" parent="1">
          <mxGeometry x="540" y="126" width="100" height="26" as="geometry" />
        </mxCell>
        <mxCell id="hh8O3KnZnLqicaPpTEog-15" value="&lt;div&gt;idDestino&lt;/div&gt;" style="text;strokeColor=#666666;fillColor=#f5f5f5;align=left;verticalAlign=top;spacingLeft=4;spacingRight=4;overflow=hidden;rotatable=0;points=[[0,0.5],[1,0.5]];portConstraint=eastwest;whiteSpace=wrap;html=1;fontColor=#333333;" vertex="1" parent="1">
          <mxGeometry x="540" y="152" width="100" height="26" as="geometry" />
        </mxCell>
        <mxCell id="hh8O3KnZnLqicaPpTEog-16" value="status" style="text;strokeColor=#666666;fillColor=#f5f5f5;align=left;verticalAlign=top;spacingLeft=4;spacingRight=4;overflow=hidden;rotatable=0;points=[[0,0.5],[1,0.5]];portConstraint=eastwest;whiteSpace=wrap;html=1;fontColor=#333333;" vertex="1" parent="1">
          <mxGeometry x="540" y="178" width="100" height="26" as="geometry" />
        </mxCell>
      </root>
    </mxGraphModel>
  </diagram>
</mxfile>
